HIERARCHY
ROOT Hips
{
	OFFSET -8.665500 -1.496397 44.816700
	CHANNELS 6 Xposition Yposition Zposition Zrotation Xrotation Yrotation
	JOINT Chest
	{
		OFFSET -0.698600 0.806100 5.350899
		CHANNELS 6 Xposition Yposition Zposition Zrotation Xrotation Yrotation
		JOINT Chest2
		{
			OFFSET 0.000000 0.000000 4.409100
			CHANNELS 6 Xposition Yposition Zposition Zrotation Xrotation Yrotation
			JOINT Neck
			{
				OFFSET 0.000000 0.000001 10.248299
				CHANNELS 6 Xposition Yposition Zposition Zrotation Xrotation Yrotation
				JOINT Head
				{
					OFFSET 0.000000 0.000000 2.173897
					CHANNELS 6 Xposition Yposition Zposition Zrotation Xrotation Yrotation
					End Site
					{
						OFFSET 0.000000 0.000001 9.966400
					}
				}
			}
			JOINT LeftCollar
			{
				OFFSET 2.100600 -0.520900 6.016098
				CHANNELS 6 Xposition Yposition Zposition Zrotation Xrotation Yrotation
				JOINT LeftShoulder
				{
					OFFSET 5.536700 0.000000 0.000000
					CHANNELS 6 Xposition Yposition Zposition Zrotation Xrotation Yrotation
					JOINT LeftElbow
					{
						OFFSET 0.000000 -0.000001 -12.362099
						CHANNELS 6 Xposition Yposition Zposition Zrotation Xrotation Yrotation
						JOINT LeftWrist
						{
							OFFSET 0.000000 -0.000001 -10.273201
							CHANNELS 6 Xposition Yposition Zposition Zrotation Xrotation Yrotation
							End Site
							{
								OFFSET 0.000000 -0.000000 -2.173901
							}
						}
					}
				}
			}
			JOINT RightCollar
			{
				OFFSET -2.899500 -1.655900 6.981701
				CHANNELS 6 Xposition Yposition Zposition Zrotation Xrotation Yrotation
				JOINT RightShoulder
				{
					OFFSET -4.387501 0.000000 0.000000
					CHANNELS 6 Xposition Yposition Zposition Zrotation Xrotation Yrotation
					JOINT RightElbow
					{
						OFFSET 0.000000 -0.000001 -10.858101
						CHANNELS 6 Xposition Yposition Zposition Zrotation Xrotation Yrotation
						JOINT RightWrist
						{
							OFFSET 0.000000 -0.000001 -12.079601
							CHANNELS 6 Xposition Yposition Zposition Zrotation Xrotation Yrotation
							End Site
							{
								OFFSET 0.000000 0.000000 -2.173901
							}
						}
					}
				}
			}
		}
	}
	JOINT LeftHip
	{
		OFFSET 2.190800 0.073900 -2.522499
		CHANNELS 6 Xposition Yposition Zposition Zrotation Xrotation Yrotation
		JOINT LeftKnee
		{
			OFFSET 0.000000 -0.000002 -20.305000
			CHANNELS 6 Xposition Yposition Zposition Zrotation Xrotation Yrotation
			JOINT LeftAnkle
			{
				OFFSET 0.000000 -0.000001 -16.771700
				CHANNELS 6 Xposition Yposition Zposition Zrotation Xrotation Yrotation
				End Site
				{
					OFFSET 0.000000 -8.738000 0.000001
				}
			}
		}
	}
	JOINT RightHip
	{
		OFFSET -2.029500 0.054300 -2.705200
		CHANNELS 6 Xposition Yposition Zposition Zrotation Xrotation Yrotation
		JOINT RightKnee
		{
			OFFSET 0.000000 -0.000002 -20.030399
			CHANNELS 6 Xposition Yposition Zposition Zrotation Xrotation Yrotation
			JOINT RightAnkle
			{
				OFFSET 0.000000 -0.000001 -17.032700
				CHANNELS 6 Xposition Yposition Zposition Zrotation Xrotation Yrotation
				End Site
				{
					OFFSET 0.000000 -8.823600 0.000001
				}
			}
		}
	}
}
MOTION
Frames: 10
Frame Time: 0.041667
-3.077296 27.436106 39.314098 2870.773751 -0.780267 -2.921508 -0.698601 0.806100 5.350900 8.576841 4.195635 10.002690 0.000001 0.000000 4.409101 -6.368215 -4.440405 -0.735408 -0.000000 0.000003 10.248301 59.352691 -5.617839 -12.465659 -0.000001 -0.000001 2.173908 0.491220 -0.855507 5.794030 2.100601 -0.520902 6.016108 6.380254 -2.409596 8.795627 5.536693 0.000002 -0.000001 161.750614 231.705398 -282.131755 0.000001 0.000004 -12.362100 -321.504599 -7.144423 1.105416 0.000002 -0.000002 -10.273199 1654.278483 183.170087 -180.786993 -2.899497 -1.655902 6.981707 -13.843433 -21.096013 30.860933 -4.387496 -0.000002 -0.000002 -366.508716 -502.063710 786.596113 0.000003 -0.000003 -10.858100 112.515421 179.255706 70.867133 0.000006 0.000001 -12.079601 -96.932713 -178.118848 176.203212 2.190799 0.073897 -2.522506 -492.105240 -152.627571 -153.435801 -0.000003 -0.000007 -20.305008 -849.013496 17.678497 90.444033 0.000001 0.000005 -16.771704 1502.169405 -6.593816 40.974749 -2.029500 0.054294 -2.705206 -79.237988 -46.023198 -52.004398 -0.000004 -0.000000 -20.030394 -221.657301 26.647353 -131.423809 -0.000003 -0.000002 -17.032701 351.265291 8.039511 -2.213023
-3.077595 27.377205 39.099598 2871.187060 -0.795515 -2.994487 -0.698600 0.806098 5.350895 8.165919 4.156290 10.096512 0.000001 0.000002 4.409103 -6.050753 -4.472356 -0.731805 -0.000001 0.000001 10.248291 59.139254 -5.584592 -12.549854 0.000001 0.000000 2.173893 0.364736 -0.775035 5.777075 2.100600 -0.520901 6.016098 6.384099 -2.371275 8.968258 5.536698 0.000002 -0.000006 161.588369 231.776377 -282.474604 0.000002 0.000003 -12.362100 -321.356029 -7.110816 1.114886 -0.000002 -0.000001 -10.273198 1654.038935 183.168120 -180.909035 -2.899501 -1.655902 6.981695 -14.368821 -21.448826 30.280138 -4.387501 -0.000003 -0.000002 -365.728053 -502.820987 786.489835 0.000006 -0.000000 -10.858088 113.766295 178.043675 70.965365 -0.000009 -0.000000 -12.079599 -95.416377 -177.816134 176.292947 2.190799 0.073901 -2.522511 -491.411347 -152.353148 -152.874250 -0.000004 -0.000007 -20.305014 -849.751812 16.560888 91.523736 0.000000 0.000003 -16.771706 1502.264154 -6.650150 41.431016 -2.029501 0.054297 -2.705205 -78.684531 -46.252378 -51.883077 -0.000002 0.000002 -20.030399 -222.389156 26.766135 -131.150069 0.000002 -0.000002 -17.032700 351.054976 8.030868 -2.266794
-3.084299 27.321005 38.868599 2871.661348 -0.855519 -2.928059 -0.698601 0.806100 5.350897 7.711316 4.106804 9.993485 0.000000 0.000001 4.409105 -5.709846 -4.532543 -0.725988 0.000000 0.000001 10.248298 59.012356 -5.449673 -12.696769 0.000002 0.000000 2.173886 0.431689 -0.678492 5.827415 2.100601 -0.520898 6.016101 6.341670 -2.329651 9.135299 5.536692 0.000001 0.000001 161.640183 231.641686 -282.651888 -0.000005 0.000002 -12.362095 -322.201934 -7.120740 1.038931 -0.000002 -0.000004 -10.273196 1654.973195 183.205932 -181.076675 -2.899499 -1.655899 6.981701 -14.577476 -21.367301 29.901445 -4.387506 -0.000003 0.000008 -365.485854 -503.753390 786.278810 -0.000004 -0.000007 -10.858101 114.711934 177.196486 71.223054 -0.000017 0.000004 -12.079606 -94.282777 -177.525018 176.326360 2.190797 0.073901 -2.522502 -491.058800 -151.942653 -152.615195 -0.000003 -0.000007 -20.305014 -850.245171 15.373192 92.582237 0.000005 0.000004 -16.771706 1502.433870 -6.871305 41.945425 -2.029502 0.054300 -2.705203 -78.454975 -46.187938 -51.913840 -0.000003 -0.000004 -20.030403 -222.787138 27.173981 -130.981759 -0.000002 0.000000 -17.032698 351.159177 8.355257 -2.016927
-3.093796 27.271807 38.638798 2872.191152 -0.869265 -2.838622 -0.698597 0.806098 5.350897 7.206270 3.990140 9.908685 -0.000000 0.000002 4.409103 -5.414657 -4.524121 -0.728649 0.000000 0.000003 10.248298 58.707259 -5.372036 -12.721521 -0.000003 0.000001 2.173898 0.381490 -0.788152 5.808576 2.100600 -0.520896 6.016102 6.372454 -2.417198 9.106186 5.536694 0.000001 -0.000003 161.949960 231.432900 -282.483811 0.000002 0.000002 -12.362094 -322.381322 -7.117017 0.993605 0.000004 0.000002 -10.273198 1655.197553 183.229756 -181.139485 -2.899500 -1.655899 6.981699 -14.411796 -21.001122 29.805805 -4.387500 0.000001 -0.000002 -365.473669 -504.804638 786.311485 -0.000003 -0.000003 -10.858093 115.389571 176.980706 71.455977 0.000001 0.000002 -12.079600 -93.901932 -177.228970 176.367587 2.190803 0.073896 -2.522497 -490.647185 -151.548907 -152.334870 -0.000004 -0.000010 -20.305008 -850.645857 14.324008 93.610277 0.000006 0.000004 -16.771702 1502.619324 -7.179453 42.249696 -2.029498 0.054291 -2.705208 -78.242740 -46.141777 -51.952164 -0.000003 -0.000003 -20.030397 -223.412660 27.092101 -130.729739 -0.000001 -0.000000 -17.032698 350.998668 8.368489 -2.390600
-3.091096 27.223307 38.393093 2872.635278 -0.759625 -2.917332 -0.698597 0.806100 5.350895 6.771012 3.815584 10.035711 0.000002 0.000002 4.409103 -5.051180 -4.575104 -0.733354 -0.000000 0.000001 10.248308 58.330499 -5.301425 -12.706488 -0.000001 0.000001 2.173904 0.381262 -0.817145 5.804723 2.100600 -0.520899 6.016106 6.263641 -2.307745 9.222085 5.536695 0.000004 0.000004 162.001295 231.058743 -282.765788 -0.000002 -0.000001 -12.362097 -321.762207 -6.945052 0.970417 -0.000002 -0.000001 -10.273205 1654.870032 183.104189 -181.044027 -2.899504 -1.655900 6.981709 -14.697121 -20.869274 29.339419 -4.387504 -0.000001 -0.000000 -365.120193 -505.885283 786.075543 0.000003 -0.000002 -10.858108 116.119828 176.963194 71.645023 0.000002 -0.000004 -12.079597 -93.600243 -177.028545 176.420931 2.190802 0.073897 -2.522505 -489.978264 -151.227382 -151.812798 -0.000006 -0.000009 -20.305012 -850.987967 13.392071 94.644224 0.000000 0.000004 -16.771706 1502.759862 -7.450176 42.302179 -2.029498 0.054292 -2.705201 -78.171454 -46.247518 -52.215724 0.000001 -0.000002 -20.030399 -223.632251 27.365445 -130.665699 0.000002 -0.000002 -17.032701 351.432139 8.458078 -3.140422
-3.075997 27.180202 38.135696 2873.111315 -0.628399 -3.086540 -0.698601 0.806099 5.350902 6.298553 3.645750 10.200684 0.000001 0.000002 4.409099 -4.680259 -4.564156 -0.727688 0.000001 0.000002 10.248305 57.967658 -5.231372 -12.566681 0.000003 0.000002 2.173900 0.483315 -0.843641 5.750828 2.100601 -0.520898 6.016111 6.663554 -2.331264 9.350807 5.536695 0.000003 0.000008 161.642806 230.655297 -282.881054 0.000002 0.000002 -12.362096 -322.638930 -6.805208 0.744693 0.000004 -0.000004 -10.273200 1655.831941 183.103192 -180.876305 -2.899499 -1.655900 6.981708 -14.711857 -20.729067 29.284702 -4.387508 -0.000001 -0.000004 -364.953564 -506.593874 786.161986 0.000001 -0.000000 -10.858100 116.983819 175.757474 71.690888 -0.000009 0.000004 -12.079601 -92.069229 -176.930013 176.492416 2.190799 0.073899 -2.522499 -488.974390 -151.023624 -151.010401 -0.000004 -0.000007 -20.305006 -851.553070 12.416203 95.770782 0.000002 0.000003 -16.771708 1503.130222 -7.655149 41.869466 -2.029502 0.054293 -2.705198 -78.569053 -46.301514 -52.804490 -0.000002 -0.000001 -20.030399 -222.997166 28.151456 -131.038354 0.000000 -0.000002 -17.032698 352.301513 8.665166 -3.465780
-3.072196 27.149405 37.870594 2873.777067 -0.507275 -3.105068 -0.698602 0.806103 5.350903 5.646660 3.456192 10.211888 -0.000000 0.000002 4.409106 -4.433557 -4.613186 -0.569627 -0.000001 0.000002 10.248299 57.727891 -5.217999 -12.612851 0.000001 0.000001 2.173895 0.648290 -0.880649 5.645262 2.100601 -0.520901 6.016104 6.401483 -2.395539 9.234830 5.536697 0.000004 0.000004 162.106111 230.396296 -282.895234 0.000004 -0.000001 -12.362101 -323.262362 -6.781528 0.580732 -0.000000 -0.000002 -10.273205 1656.137715 183.096266 -180.868327 -2.899504 -1.655898 6.981700 -14.552468 -20.288937 29.197051 -4.387500 0.000000 -0.000004 -364.909905 -507.524583 786.256079 0.000002 -0.000006 -10.858100 117.512995 175.701494 71.737798 -0.000006 0.000001 -12.079600 -91.626564 -176.889236 176.532741 2.190798 0.073898 -2.522497 -488.055375 -150.719927 -150.216064 -0.000002 -0.000005 -20.305010 -852.215216 11.459095 97.027359 0.000001 0.000004 -16.771704 1503.407473 -7.951937 41.874032 -2.029501 0.054297 -2.705197 -79.127195 -46.207825 -53.449628 0.000001 -0.000001 -20.030396 -222.056212 29.347410 -131.619398 0.000002 -0.000004 -17.032700 353.669599 8.999415 -3.751416
-3.055297 27.117302 37.602997 2874.333100 -0.400104 -3.204655 -0.698602 0.806100 5.350900 5.069146 3.425149 10.352483 -0.000000 0.000002 4.409097 -4.059490 -4.660862 -0.550126 0.000001 0.000000 10.248300 57.244567 -5.267867 -12.377829 0.000000 -0.000002 2.173895 0.715339 -0.951659 5.502344 2.100600 -0.520899 6.016098 6.037613 -2.367070 9.193633 5.536697 0.000000 0.000001 162.374606 230.578744 -282.996567 0.000003 0.000004 -12.362091 -322.671906 -6.730467 0.496621 -0.000001 -0.000005 -10.273200 1655.253834 183.075052 -181.027703 -2.899500 -1.655900 6.981703 -14.708450 -20.407748 29.103986 -4.387505 -0.000001 -0.000003 -364.519328 -508.013133 786.363887 0.000005 -0.000002 -10.858109 117.826159 175.708406 71.754839 -0.000008 -0.000000 -12.079601 -91.289044 -176.750515 176.636178 2.190797 0.073900 -2.522504 -486.511533 -150.683850 -149.103330 -0.000006 -0.000006 -20.305008 -853.302746 10.455350 98.286327 0.000002 0.000005 -16.771702 1503.624618 -8.170346 41.810067 -2.029501 0.054296 -2.705201 -79.172247 -46.474233 -53.799040 -0.000002 0.000001 -20.030394 -222.314625 29.448620 -131.648590 0.000003 -0.000002 -17.032700 353.642497 9.062864 -4.287964
-3.029097 27.087305 37.322296 2874.844326 -0.257691 -3.315433 -0.698599 0.806101 5.350902 4.538836 3.371817 10.438491 0.000000 -0.000001 4.409100 -3.753936 -4.748093 -0.542365 0.000000 0.000002 10.248301 57.051341 -5.267646 -12.176591 -0.000002 -0.000003 2.173889 0.822001 -0.996373 5.288220 2.100600 -0.520899 6.016102 6.377846 -2.293307 9.464566 5.536696 -0.000001 0.000005 161.912230 230.354823 -283.312750 0.000001 0.000002 -12.362100 -323.239385 -6.670451 0.298785 -0.000004 0.000004 -10.273199 1655.904068 183.046256 -181.172762 -2.899499 -1.655900 6.981699 -14.879787 -20.204270 28.883852 -4.387500 0.000002 0.000005 -364.283549 -508.810953 786.281979 0.000001 -0.000001 -10.858093 118.213444 175.756736 71.770139 -0.000010 0.000000 -12.079601 -90.694749 -176.657488 176.696543 2.190799 0.073901 -2.522502 -485.461979 -150.485337 -148.167908 -0.000004 -0.000005 -20.305010 -853.949865 9.490241 99.412891 0.000003 0.000004 -16.771700 1503.629973 -8.228523 42.070103 -2.029500 0.054296 -2.705201 -79.691970 -46.560454 -54.611078 0.000000 -0.000004 -20.030396 -221.928446 29.893132 -131.893357 0.000005 -0.000003 -17.032700 353.913437 9.308987 -4.628380
-3.017296 27.058506 37.043396 2875.466146 -0.284436 -3.215132 -0.698600 0.806099 5.350896 3.902899 3.458703 10.300012 0.000001 0.000002 4.409103 -3.470664 -4.794596 -0.532129 0.000001 0.000005 10.248294 56.907869 -5.270263 -12.063983 0.000002 0.000000 2.173893 1.015355 -0.950506 5.077611 2.100602 -0.520894 6.016100 6.399851 -2.340017 9.460382 5.536696 -0.000001 -0.000003 162.071428 230.468095 -283.252016 -0.000002 0.000005 -12.362098 -324.208043 -6.673171 0.187584 0.000001 -0.000000 -10.273203 1656.455948 183.103015 -181.540390 -2.899496 -1.655896 6.981698 -14.677993 -19.942339 29.099997 -4.387496 0.000003 0.000004 -364.319640 -509.235900 786.464372 0.000005 -0.000009 -10.858105 118.517292 175.370899 71.807705 -0.000007 0.000001 -12.079600 -89.742750 -176.573682 176.748534 2.190800 0.073898 -2.522501 -484.911794 -150.148909 -147.618570 -0.000004 -0.000005 -20.305004 -854.391314 8.684947 100.488475 -0.000003 0.000004 -16.771706 1503.486157 -8.216613 42.208257 -2.029499 0.054297 -2.705193 -80.202738 -46.541862 -55.409128 -0.000000 0.000001 -20.030397 -221.870759 29.880988 -132.140296 0.000001 -0.000003 -17.032701 353.583129 9.281211 -4.604215
